<svg xmlns="http://www.w3.org/2000/svg" xmlns:xlink="http://www.w3.org/1999/xlink" version="1.1" id="Capa_1" x="0px" y="0px" viewBox="0 0 511.959 511.959" style="enable-background:new 0 0 511.959 511.959;" xml:space="preserve">
<g>
	<g>
		<path style="fill:#C3DDFF;" d="M476.694,359.676V152.282c0-14.686-7.835-28.256-20.553-35.599L276.533,12.986    c-12.718-7.343-28.388-7.343-41.106,0L55.818,116.683c-12.718,7.343-20.553,20.913-20.553,35.599v207.394    c0,14.686,7.835,28.256,20.553,35.599l179.608,103.697c12.718,7.343,28.388,7.343,41.106,0l179.608-103.697    C468.859,387.932,476.694,374.362,476.694,359.676z"/>
		<path style="fill:#A4CCFF;" d="M456.141,395.275c6.382-3.685,11.531-8.94,15.08-15.115L255.979,255.89v248.589    c7.097,0,14.194-1.836,20.553-5.507L456.141,395.275z"/>
		<path style="fill:#A4CCFF;" d="M235.426,12.986L55.818,116.683c-12.718,7.343-20.553,20.913-20.553,35.599v207.394    c0,14.686,7.835,28.256,20.553,35.599l179.608,103.697c6.359,3.671,13.456,5.507,20.553,5.507v-497    C248.882,7.479,241.786,9.315,235.426,12.986z"/>
		<path style="fill:#DBEAFF;" d="M255.979,255.979l215.207-124.25c-3.548-6.146-8.687-11.374-15.046-15.046L276.533,12.986    c-12.718-7.343-28.388-7.343-41.106,0L55.818,116.683c-6.359,3.671-11.498,8.9-15.046,15.046L255.979,255.979z"/>
		<path style="fill:#C3DDFF;" d="M235.426,12.986L55.818,116.683c-6.359,3.671-11.498,8.9-15.046,15.046l215.207,124.25V7.479    C248.882,7.479,241.786,9.315,235.426,12.986z"/>
		<path style="fill:#8BB3EA;" d="M55.818,395.275c-6.382-3.685-11.531-8.94-15.08-15.115l215.242-124.27v248.589    c-7.097,0-14.194-1.836-20.553-5.507L55.818,395.275z"/>
	</g>
	<g>
		<path d="M459.891,110.188L280.283,6.491c-14.99-8.655-33.615-8.655-48.606,0L52.068,110.188    c-14.991,8.654-24.303,24.784-24.303,42.094v207.394c0,17.31,9.313,33.44,24.303,42.094l179.608,103.697    c7.496,4.328,15.898,6.492,24.303,6.492c8.403,0,16.809-2.165,24.303-6.492L459.891,401.77    c14.991-8.654,24.303-24.784,24.303-42.094V152.282C484.194,134.972,474.881,118.843,459.891,110.188z M59.568,388.78    c-2.937-1.695-5.544-3.817-7.793-6.243l175.891-101.55c3.587-2.071,4.816-6.658,2.745-10.245    c-2.071-3.588-6.658-4.816-10.245-2.745L44.275,369.546c-0.976-3.161-1.51-6.48-1.51-9.87V152.282c0-3.391,0.533-6.71,1.51-9.871    l15.543,8.974c1.181,0.682,2.471,1.006,3.743,1.006c2.592,0,5.113-1.345,6.502-3.751c2.071-3.587,0.842-8.174-2.745-10.245    l-15.543-8.974c2.249-2.426,4.857-4.548,7.793-6.243L239.176,19.482c2.937-1.695,6.078-2.893,9.303-3.628v200.045    c0,4.142,3.358,7.5,7.5,7.5s7.5-3.358,7.5-7.5V15.854c3.226,0.735,6.367,1.932,9.303,3.628l179.608,103.697    c2.937,1.695,5.544,3.817,7.793,6.243L255.979,247.319L99.415,156.927c-3.588-2.072-8.174-0.842-10.245,2.745    c-2.071,3.587-0.842,8.174,2.745,10.245l156.564,90.393v235.795c-3.226-0.735-6.367-1.932-9.303-3.628L59.568,388.78z     M452.391,388.78L272.783,492.477c-2.937,1.695-6.078,2.893-9.303,3.628V260.309l204.204-117.898    c0.977,3.161,1.51,6.48,1.51,9.871v207.394c0,3.364-0.525,6.657-1.487,9.795l-15.584-8.997c-3.589-2.072-8.175-0.842-10.245,2.745    c-2.071,3.587-0.842,8.174,2.745,10.245l15.615,9.015C457.977,384.929,455.35,387.071,452.391,388.78z"/>
		<path d="M423.667,344.045l-131.72-76.048c-3.587-2.071-8.174-0.842-10.245,2.745c-2.071,3.587-0.842,8.174,2.745,10.245    l131.72,76.048c1.181,0.682,2.471,1.006,3.743,1.006c2.592,0,5.113-1.346,6.502-3.751    C428.484,350.702,427.255,346.115,423.667,344.045z"/>
	</g>
</g>
</svg>